<?xml version="1.0" encoding="iso-8859-1"?>
<!-- Uploaded to: SVG Repo, www.svgrepo.com, Generator: SVG Repo Mixer Tools -->
<svg height="800px" width="800px" version="1.1" id="Layer_1" xmlns="http://www.w3.org/2000/svg" xmlns:xlink="http://www.w3.org/1999/xlink" 
	 viewBox="0 0 392.604 392.604" xml:space="preserve">
<g>
	<path style="fill:#FFFFFF;" d="M303.033,182.05c28.121,0,51.911-36.719,51.911-80.032s-23.79-80.162-51.911-80.162
		c-15.127-0.388-23.014,13.317-21.657,44.735c1.034,24.372,0,45.446-3.103,64.517C275.171,160.394,279.049,182.05,303.033,182.05z"
		/>
	<path style="fill:#FFFFFF;" d="M54.597,147.141h-7.564c9.503,20.945,25.212,34.974,42.602,34.974
		c23.855,0,27.798-21.657,24.76-50.941c-3.103-19.071-4.073-40.21-3.103-64.517c1.422-31.547-6.4-45.188-21.657-44.735
		c-23.661,0-44.154,25.794-50.166,59.798h38.141c6.012,0,10.925,4.848,10.925,10.925c0,6.012-4.848,10.925-10.925,10.925H37.724
		c0.065,7.499,0.84,14.804,2.327,21.786h14.61c6.012,0,10.925,4.848,10.925,10.925C65.587,142.164,60.609,147.141,54.597,147.141z"
		/>
</g>
<g>
	<path style="fill:#56ACE0;" d="M89.571,160.265c-12.283,0-30.125-22.691-30.125-58.246c0-33.875,16.162-56.048,28.251-58.117
		c0.905,3.168,2.133,9.762,1.616,21.851c-1.099,25.794-0.259,48.42,3.426,68.913C96.488,155.481,90.67,160.265,89.571,160.265z"/>
	<path style="fill:#56ACE0;" d="M301.094,160.006c-1.164-1.875-3.685-9.632-1.164-25.406c3.297-20.558,4.396-43.055,3.426-68.913
		c-0.453-12.154,0.711-18.683,1.616-21.915c12.154,2.069,30.384,24.372,28.251,58.117
		C329.732,160.006,301.482,160.071,301.094,160.006z"/>
</g>
<path style="fill:#194F82;" d="M303.033,0.071c-31.547-0.388-43.83,24.954-43.378,67.491c0.259,4.848,0.259,9.503,0.323,14.158
	h-9.374c-22.562,0-40.986,18.36-40.986,40.986v90.505c-8.727,0.065-17.778,0.065-26.44,0v-90.57
	c0-22.562-18.36-40.986-40.986-40.986h-9.503c0-4.59,0.065-9.244,0.323-14.158c0.453-42.473-11.83-67.943-43.378-67.491
	c-40.792,0-73.891,45.77-73.891,101.947s33.228,101.947,73.891,101.947c39.046-3.168,52.17-30.772,46.222-76.218
	c-1.228-7.628-2.004-15.774-2.521-24.178h8.857c10.602,0,19.135,8.598,19.135,19.135v90.311
	c-27.604,0.129-68.396,2.651-68.396,46.158c0,36.461,28.509,68.137,70.465,79.451v43.119c0,6.012,4.848,10.925,10.925,10.925h44.154
	c6.012,0,10.925-4.848,10.925-10.925v-43.119c41.891-11.313,70.4-42.99,70.4-79.451c0-43.507-40.727-45.964-68.331-46.158V122.64
	c0-10.602,8.598-19.135,19.135-19.135h8.727c-0.517,8.469-1.293,16.614-2.521,24.178c-5.883,45.446,7.176,73.05,46.222,76.218
	c40.663,0,73.826-45.77,73.826-101.947S343.631,0.071,303.033,0.071z M89.571,182.05c-17.39,0-33.164-14.093-42.602-34.974h7.564
	c6.012,0,10.925-4.848,10.925-10.925c0-6.012-4.848-10.925-10.925-10.925H39.987c-1.422-6.982-2.133-14.287-2.327-21.786h39.952
	c6.012,0,10.925-4.848,10.925-10.925c0-6.012-4.848-10.925-10.925-10.925H39.534C45.546,47.65,66.039,21.792,89.7,21.792
	c15.127-0.388,23.014,13.317,21.657,44.735c-1.034,24.372,0,45.446,3.103,64.517C117.433,160.394,113.554,182.05,89.571,182.05z
	 M277.886,259.109c0,28.444-25.341,53.075-61.479,60.121c-5.107,1.034-8.792,5.495-8.792,10.731v40.857h-22.303v-40.857
	c0-5.236-3.685-9.762-8.792-10.731c-36.267-6.982-61.608-31.677-61.608-60.121c0-17.131,7.111-24.372,51.394-24.372h60.38
	C270.775,234.737,277.886,241.913,277.886,259.109z M303.033,182.05c-23.855,0-27.798-21.657-24.76-50.941
	c3.103-19.071,4.073-40.21,3.103-64.517c-1.422-31.547,6.4-45.188,21.657-44.735c28.121,0,51.911,36.719,51.911,80.032
	S331.154,182.05,303.033,182.05z"/>
<path style="fill:#FFC10D;" d="M207.615,370.818v-40.857c0-5.236,3.685-9.762,8.792-10.731
	c36.267-6.982,61.479-31.677,61.479-60.121c0-17.131-7.111-24.372-51.394-24.372h-60.38c-44.283,0-51.394,7.176-51.394,24.372
	c0,28.444,25.341,53.075,61.608,60.121c5.107,1.034,8.792,5.495,8.792,10.731v40.857H207.615z"/>
</svg>