<?xml version="1.0" encoding="UTF-8"?><svg id="GRAPHIC" xmlns="http://www.w3.org/2000/svg" width="253" height="283" viewBox="0 0 253 283"><defs><style>.cls-1{fill:#f4ccaf;}.cls-2{fill:#f4d0a7;}.cls-3,.cls-4{fill:#ef9e9e;}.cls-5{fill:#ed7a79;}.cls-6{fill:#f5cda7;}.cls-7{fill:#f3bc8b;}.cls-4,.cls-8,.cls-9{fill-rule:evenodd;}.cls-8{fill:#fff;}.cls-9{fill:#00325e;}</style></defs><path class="cls-9" d="M150.0711,244.3833c-2.8871-.9412-4.3567-2.5155-5.7545-7.1439-1.2245,3.7087-3.1251,6.0675-5.7852,6.9098,3.2404,.9856,4.8139,4.122,6.0673,7.155,.489-2.8805,2.0568-6.0877,5.4724-6.9209h0Z"/><path class="cls-8" d="M210.1739,39.9009c3.316-1.0808,5.004-2.8889,6.6093-8.2051,1.4066,4.2597,3.5898,6.969,6.6448,7.9368-3.7218,1.1319-5.5288,4.7342-6.9685,8.2182-.562-3.3089-2.3627-6.9925-6.2856-7.9498h0Z"/><path class="cls-9" d="M235.5296,72.5256c-2.2979-.7491-3.4673-2.0017-4.5796-5.6849-.9744,2.9512-2.4869,4.8279-4.6034,5.4984,2.5785,.7842,3.8306,3.2802,4.828,5.6938,.3891-2.2921,1.6366-4.8443,4.355-5.5073h0Z"/><path class="cls-4" d="M0,122.0683c3.0645-.9991,4.6247-2.6702,6.1081-7.5828,1.2997,3.9366,3.317,6.4401,6.1405,7.3347-3.4395,1.0457-5.1096,4.3747-6.4401,7.5942-.519-3.0575-2.1829-6.4618-5.8086-7.3461H0Z"/><path class="cls-4" d="M240.7513,188.7139c3.0645-.9991,4.6247-2.6702,6.1081-7.5828,1.2997,3.9366,3.317,6.4401,6.1405,7.3347-3.4395,1.0457-5.1096,4.3747-6.4401,7.5942-.519-3.0575-2.1829-6.4618-5.8086-7.3461h0Z"/><path class="cls-9" d="M37.3154,56.212c2.5751-.8393,3.8859-2.2435,5.1324-6.3716,1.0927,3.308,2.7872,5.4113,5.16,6.163-2.8902,.879-4.2938,3.6765-5.4113,6.3815-.4363-2.5691-1.8347-5.4296-4.881-6.1729h0Z"/><g><path class="cls-3" d="M81.2122,37.0157c2.4077,1.179,4.645,2.5415,5.5473,5.2928,.5435,1.6573,.6957,3.3876,.6773,5.1062-.1032,9.6554-2.3112,18.8795-5.7294,27.8652-4.2388,11.143-9.9457,21.5914-15.1415,32.2821-.2937,.6042-.573,1.2154-.8663,1.8389,.5623,.3838,.8242-.1224,1.1329-.3152,6.7481-4.212,14.1187-6.3712,22.0418-6.7209,3.9081-.1725,6.832,1.7011,8.5774,5.4865-1.7504,2.0919-3.9639,3.3428-6.7067,3.4198-11.5078,.323-20.7343,5.2721-28.1937,13.8244-8.5162,9.764-13.0312,21.2532-14.6192,34.0018-1.412,11.3355,1.1707,21.9499,5.8465,32.1678,2.656,5.8042,5.8486,11.2971,10.1046,16.0983,5.852,6.6014,13.0639,10.8489,21.8295,12.232,1.9363,.3055,3.9415,.0889,5.8884,.5124,1.9704,.4286,3.7525,1.1886,5.1714,2.6696-2.5018,4.2247-6.4778,4.3956-10.707,3.9156-17.5014-1.9866-29.4648-11.947-38.0612-26.6127-5.2953-9.0339-7.8807-18.9612-9.0967-29.2966-2.0644-17.547,.5823-34.5452,5.8129-51.2671,3.0866-9.8677,7.196-19.296,11.8533-28.5085,4.2603-8.4272,8.495-16.87,11.3778-25.9063,2.0178-6.3249,3.2841-12.7361,2.9889-19.4391-.1919-4.3562,2.2453-7.1123,6.1934-8.6469h4.0782Z"/><path class="cls-5" d="M189.0665,37.0157c4.7764,1.8848,6.4832,5.4114,6.2922,10.4756-.3566,9.4529,2.7898,18.1748,6.3512,26.7446,3.2195,7.7471,7.2628,15.1023,10.8781,22.6614,6.8154,14.2501,11.8408,29.0853,14.1514,44.7323,2.4366,16.4993,1.8832,32.8406-3.9515,48.6805-4.5386,12.3212-11.8899,22.561-23.0937,29.6947-7.3959,4.7092-15.4881,7.1985-24.349,6.7923-.4735-.2099-1.2959-.3325-.2909-.9638,.3674-.2308,.8296-.2227,1.2512-.313,8.6234-1.8479,15.9726-5.992,22.3437-12.0718,9.5352-9.0993,15.0658-20.3183,17.9922-33.0032,2.0131-8.7258,2.7123-17.5774,2.2738-26.4823-.5332-10.8286-2.5193-21.4357-5.6421-31.8287-3.227-10.7401-7.6233-20.9829-12.6691-30.9884-4.2786-8.4843-8.5622-16.988-11.4388-26.097-1.8134-5.742-3.1162-11.564-2.8247-17.6433,.1444-3.0122-.4258-5.7789-2.7286-7.9626-.3517-.3336-.6555-.7572-.4792-1.3178,.5462-.7631,1.6115-.4843,2.2263-1.1095h3.7075Z"/><path class="cls-2" d="M170.1892,209.7643c-9.3525-2.4011-15.8937-8.3816-20.6824-16.469-6.101-10.3036-8.4596-21.5871-7.427-33.3932,1.1371-13.0003,5.521-24.7614,15.5461-33.7584,4.1152-3.6932,8.9666-6.0441,14.4055-7.1373,6.6383,2.0427,12.0153,5.897,16.3049,11.326,1.9055,2.4116,1.7752,2.8783-.9459,4.1501-6.1417,2.8707-11.1237,7.0588-14.5367,12.9978-.6228,1.0837-1.0907,2.2227-1.324,3.4417-.2162,1.1299,.0158,2.1534,1.2367,2.5676,1.1488,.3897,2.2056,.1823,2.9503-.8901,.3911-.5634,.6169-1.2106,.8569-1.8446,1.0875-2.873,3.1862-4.9594,5.3909-6.9635,.891-.81,1.6679-.6545,2.2956,.3347,1.864,2.9377,3.0743,6.0552,2.5971,9.6256-.0491,.3672-.155,.7266-.1836,1.0961-.113,1.4598,.6055,2.5273,1.8625,2.7841,1.242,.2537,2.4085-.4372,2.7198-1.909,.5279-2.4958,.4925-5.036-.0364-7.5359-.4772-2.2556-1.4398-4.3248-2.6385-6.2934-1.0595-1.74-.9099-2.1678,.9452-3.1117,.4959-.2523,1.0114-.4579,1.5343-.6496,1.4066-.5156,2.3021-.1189,2.9477,1.2986,2.7887,6.1227,4.5356,12.4911,5.2521,19.2016,.9652,9.0399-.4039,17.7216-3.436,26.202-.4002,1.1192-.5834,2.8479-1.8024,2.9999-1.3967,.1741-1.8711-1.5487-2.5642-2.6043-.8468-1.2897-1.6051-2.6338-2.4717-3.915-2.664-3.9382-6.5382-5.6931-11.0849-6.2359-.9781-.1168-1.9417-.3994-2.939-.3351-1.6387,.1057-2.7576,1.1011-2.7554,2.4367,.0022,1.326,.9084,2.1853,2.5569,2.4147,.4904,.0682,.9866,.0446,1.4799,.068,4.2482,.2011,7.5793,1.8851,9.7029,5.7472,1.3066,2.3764,2.6889,4.7299,4.7137,6.6126,.851,.7913,.9151,1.6839,.2748,2.6581-4.5756,6.9618-10.4503,12.2893-18.5588,14.8351-.7266,.2281-1.4515,.2245-2.1867,.248Z"/><path class="cls-3" d="M183.1327,38.1252c3.318,2.8433,3.8747,6.5662,3.7479,10.6964-.2448,7.9751,2.2645,15.3942,5.1664,22.6761,3.5423,8.8889,8.0222,17.3419,12.1947,25.9388,6.21,12.7946,10.6924,26.1892,13.2962,40.1721,1.6362,8.787,2.3992,17.6935,1.8788,26.6214-.6848,11.7482-2.9681,23.1876-8.5145,33.7042-5.7128,10.8321-13.6565,19.5508-24.9087,24.8829-3.3464,1.5858-6.8234,2.8234-10.5216,3.2825-1.1174,.1387-.2094,.4475-.1269,.6977-3.9311-.6317-6.8931-3.8539-7.0358-7.6538-.15-3.9952,2.3517-7.3022,6.2549-8.2683,.7219-.7121,1.6561-.7732,2.5821-.8062,6.6976-.2392,12.4538-2.8144,17.4944-7.1039,6.5059-5.5366,10.4856-12.6915,13.025-20.7191,4.7085-14.8845,3.6391-29.4078-3.3068-43.3493-4.0702-8.1697-9.9686-14.6956-18.8175-17.9947-3.2679-1.2183-6.6444-1.8692-10.1403-1.8639-.6153-.0747-1.1644-.2798-1.5512-.7982-4.1334-1.6494-6.2811-5.4125-5.3535-9.3803,.9899-4.2342,4.7798-6.7811,9.287-6.4958,8.0436,.5091,15.5036,2.7436,22.2779,7.193,.4323-.9533-.188-1.5999-.5234-2.2907-4.7162-9.7135-9.8318-19.2362-13.8944-29.2614-4.2798-10.5612-7.1953-21.3857-6.6374-32.9255,.1493-3.088,1.4016-5.4366,4.1264-6.9539Z"/><path class="cls-7" d="M175.3278,118.6108c10.0033,.0075,17.8722,4.3531,24.1526,11.9065,6.3808,7.6741,9.7551,16.6954,10.9795,26.4246,1.8971,15.0748-1.2536,29.0961-10.5521,41.3119-5.1312,6.741-12.0233,11.0179-20.5784,12.2208-1.576,.2216-3.1761,.2716-4.7651,.4006-1.3488-.8029-3.0069-.3862-4.3753-1.1108,4.2505-1.3187,8.2807-3.0342,11.8125-5.853,3.4544-2.757,6.2634-6.0453,8.7121-9.6864,.467-.6943,.4129-1.1957-.2282-1.7387-2.2617-1.9158-3.6407-4.4902-5.0447-7.0176-1.9986-3.5976-5.1473-5.1168-9.0927-5.3255-.5547-.0293-1.1161,.0328-1.6673-.0203-1.9927-.1919-3.0786-1.2906-3.0367-3.0281,.04-1.6602,1.2912-2.9317,3.2347-2.8526,6.6948,.2724,12.4126,2.382,15.8086,8.7287,.8904,1.664,1.7588,3.3827,3.2852,4.8659,2.2946-4.5433,3.4373-9.2866,4.3306-14.0875,.7334-3.9415,.9855-7.9457,.7576-11.9508-.4082-7.1749-1.8668-14.1285-4.8676-20.6906-1.545-3.3784-1.9042-3.4003-5.2067-1.5534-.7855,.4393-.9383,.7292-.3909,1.507,2.773,3.9407,3.8468,8.3444,3.4501,13.1337-.0513,.6192-.1109,1.2147-.3132,1.8088-.5809,1.7055-1.7912,2.5365-3.3084,2.221-1.5678-.326-2.684-1.8444-2.2595-3.4956,.9558-3.7178-.3231-6.9119-2.0504-10.0448-.5697-1.0332-1.068-1.4114-2.1518-.3334-2.2983,2.2859-4.3852,4.6351-5.4564,7.7949-.6438,1.8991-2.2254,2.5233-3.988,1.9001-1.4853-.5251-1.9666-1.8689-1.3119-3.8707,1.764-5.3941,5.5447-9.2286,9.9078-12.5598,2.103-1.6056,4.3651-3.0071,6.895-3.872,1.3578-.4642,1.5693-1.0817,.6689-2.2495-3.9983-5.1858-8.8578-9.2071-15.0807-11.4641-.5715-.2073-1.4413-.0859-1.5655-1.0243,.473-.028,.9458-.0563,1.4186-.0846,.5608-.4974,1.2939,.0467,1.8779-.3107Z"/><path class="cls-7" d="M92.7438,118.9323c6.0024,.5084,11.1236,3.0696,15.5872,6.9532,8.8827,7.7285,13.2507,17.8497,15.2009,29.2128,2.1786,12.6945,.2263,24.7759-5.663,36.1659-3.9521,7.6435-9.5637,13.7291-17.6622,17.2068-2.3416,1.0056-4.7947,1.5347-7.27,2.0186-.3527,.0689-.7565,.0019-.9729,.399-3.085,.4067-6.1145,.373-8.9584-1.127-.2165-1.2398,.873-1.1816,1.5274-1.428,5.4928-2.0682,10.1354-5.2818,13.9162-9.8119,5.6523-6.7727,8.9975-14.6005,10.5872-23.1729,2.6473-14.2753,.509-27.8236-7.035-40.3046-4.0932-6.7718-9.6942-11.979-17.3234-14.6914-.4935-.1754-1.1325-.1918-1.3073-.8722,2.2609-1.4463,4.807-1.2497,7.3154-1.28,.7045,.1899,1.4133,.3712,2.058,.7316Z"/><path class="cls-5" d="M90.8835,118.6349c-2.5368,.0636-5.0634,.201-7.495,1.03-.237,.4102-.6563,.557-1.0639,.6826-7.263,2.2368-12.757,6.8149-17.1056,12.911-1.4886,2.0352-2.7336,4.2138-3.828,6.4832-3.3592,7.372-5.3601,15.0804-5.6034,23.1915-.3038,10.1308,2.0529,19.6637,6.6891,28.6498,1.1732,2.2203,2.5671,4.296,4.1513,6.2452,3.7819,4.654,8.2725,8.3568,13.9455,10.5102,.8432,.3201,1.8052,.4252,2.4739,1.1394,1.8119,.7738,3.7364,.9835,5.6721,1.0483,1.0971,.0367,2.1827,.0633,3.2447,.3629,5.3079,1.7082,7.4831,7.0859,4.8085,11.8884-2.4115-1.2064-4.8034-2.5238-7.5878-2.5632-2.1624-.0306-4.266-.2201-6.3958-.7094-5.5311-1.2706-10.3616-3.827-14.688-7.4268-8.2736-6.8842-13.0834-16.0479-16.9133-25.8341-2.878-7.3539-4.4061-14.9647-4.0892-22.9022,.2898-7.2575,1.8435-14.2406,4.4955-20.9864,3.0108-7.6586,7.1791-14.6151,13.1073-20.3602,5.6873-5.5116,12.397-9.2928,20.2682-10.7362,1.4357-.2633,2.9562-.4135,4.3929-.3812,2.9163,.0655,5.2879-.9219,7.4056-2.7934,.1665-.1472,.4531-.1584,.6839-.2329,1.4683,4.4797-.5467,8.6088-5.0857,10.4214-.4476,.3116-.8921,.6361-1.4827,.3622Z"/><path class="cls-6" d="M90.8835,118.6349c.4943-.1208,.9886-.2416,1.4828-.3623,.1256,.2201,.2513,.4401,.3772,.6599-.6299-.0363-1.313,.2587-1.86-.2976Z"/><path class="cls-1" d="M175.3278,118.6108c-.5458,.5859-1.2384,.2866-1.8776,.311,.1331-.2276,.2665-.4548,.3999-.682,.4926,.1237,.9851,.2474,1.4777,.3711Z"/><path class="cls-2" d="M83.0473,209.4777c-4.6994-.9777-8.6517-3.3988-12.1718-6.5293-1.6796-1.4937-3.4769-2.9387-4.556-5.0048,.4115-.4807,.9868-.4451,1.5367-.4845,10.4214-.7455,18.4856-5.6216,24.5135-14.0319,1.0101-1.4093,1.8479-2.937,2.2566-4.6416,.3481-1.4518-.2121-2.6407-1.3541-3.0944-1.1615-.4615-2.2992-.0019-2.9907,1.4646-1.3005,2.7581-2.7834,5.3765-4.9689,7.5391-1.8755,1.8558-2.5971,1.7688-3.951-.4677-1.7565-2.9017-2.5204-5.9987-1.9439-9.3996,.3236-1.9089-.3679-3.0366-1.8281-3.2588-1.3782-.2097-2.5026,.7419-2.7719,2.5976-.6128,4.2227,.035,8.2447,2.1687,11.9867,.3669,.6434,.7714,1.2652,1.0896,1.9375,.4105,.8674,.2892,1.5926-.6086,2.0176-4.7361,2.2416-9.6259,3.4555-14.8735,2.1154-.1138-.0291-.2058-.1328-.3017-.2113-2.9925-4.8322-4.6911-10.1728-5.8399-15.6676-2.6188-12.526-.9933-24.6047,4.2282-36.2385,.1223-.2725,.341-.5017,.5148-.7511,4.9843-2.1585,10.7842-.1957,13.5745,4.6039,1.3355,2.2972,2.6788,4.5831,4.6403,6.4307,3.4316,3.2324,7.6718,4.0231,12.1579,3.9804,1.2997-.0123,2.2803-.7367,2.3893-2.1228,.1118-1.422-.8144-2.1156-2.0975-2.3776-.8452-.1726-1.693-.3523-2.5614-.3807-3.9907-.1308-6.87-2.1169-8.9494-5.4024-.5937-.9381-1.1957-1.8761-1.719-2.8549-2.5365-4.7446-6.6043-6.971-11.8559-7.3334-.6896-.0476-1.6828,.3351-1.8935-.8612,4.344-6.3297,10.0355-10.8763,17.431-13.162,.3476-.1074,.7179-.1415,1.0773-.21,3.6331,.5854,6.7069,2.4156,9.5478,4.5809,6.656,5.0731,10.9877,11.8217,13.9403,19.5881,3.1207,8.2085,4.3116,16.7193,3.5462,25.3753-.9474,10.7142-4.3484,20.5961-11.2154,29.1617-4.3143,5.3815-9.849,8.7513-16.1604,11.1066Z"/><path class="cls-7" d="M62.2923,192.0123c4.451,.5492,8.8146,.3149,13.0093-1.4456,.1125-.0472,.2425-.0516,.3576-.0943,2.7024-1.0023,2.6773-.988,1.2217-3.4626-2.501-4.2518-3.4182-8.8013-2.3649-13.6648,.3709-1.7126,1.7341-2.6721,3.1511-2.3696,1.7989,.3841,2.7943,1.7325,2.3557,3.5409-.9289,3.8301,.2801,7.1299,2.2296,10.3231,.6546,1.0722,1.2172,.9759,2.0248,.2153,2.3235-2.1881,4.0828-4.7606,5.3402-7.6812,.9063-2.1052,2.1271-2.8585,3.7554-2.2649,1.669,.6085,2.3445,2.261,1.5892,4.2914-1.5122,4.0649-4.1851,7.2721-7.369,10.1827-4.2959,3.927-9.2915,6.3779-14.8686,7.7755-2.0999,.5262-4.2435,.6714-6.4044,.5853-1.7596-1.6941-2.9607-3.7672-4.0277-5.9313Z"/><path class="cls-7" d="M64.8805,133.0371c1.1892,.8507,2.6269,.4627,3.9167,.6428,4.7565,.664,7.9602,3.2637,10.2624,7.2889,1.0969,1.9178,2.1385,3.8656,3.7831,5.4349,1.5977,1.5246,3.4849,2.3589,5.5997,2.5359,1.2265,.1026,2.4385,.2738,3.6517,.4368,1.4409,.1935,2.3479,1.0374,2.4497,2.5261,.1032,1.5091-.9511,2.9252-2.4542,2.9694-5.9908,.176-11.3897-1.1905-15.0547-6.4538-1.4039-2.0162-2.6495-4.1421-4.03-6.1753-1.3073-1.9254-3.2312-2.8136-5.5119-2.8784-2.0976-.0596-4.1983-.0105-6.2976-.0092,.8876-2.3048,2.1999-4.3618,3.6852-6.318Z"/></g></svg>