<svg version="1.2" xmlns="http://www.w3.org/2000/svg" viewBox="0 0 512 512" width="512" height="512"><style>.a{fill:#cbfdcb}.b{fill:#f2ca5a}.c{fill:#ffae47}.d{fill:#ef3a47}.e{fill:#565656}.f{fill:#494949}</style><path class="a" d="m252.5 497c-139.6 0-252.5-111.1-252.5-248.5 0-137.4 112.9-248.5 252.5-248.5 139.6 0 252.5 111.1 252.5 248.5 0 137.4-112.9 248.5-252.5 248.5z"/><path class="b" d="m410.3 269.1c-33 0-59.6-26.6-59.6-59.6 0-32.9 26.6-59.5 59.6-59.5 32.9 0 59.5 26.6 59.5 59.5 0 33-26.6 59.6-59.5 59.6z"/><path class="c" d="m469.8 209.5c0 32.9-26.7 59.6-59.6 59.6-4.8 0-9.5-0.6-14-1.7 26.1-6.3 45.5-29.8 45.5-57.9 0-28-19.4-51.5-45.5-57.8 4.5-1.1 9.2-1.7 14-1.7 32.9 0 59.6 26.7 59.6 59.5z"/><path class="d" d="m132.8 53.6c-10.7 1.6-32-5.7-33.9-18.4-2-12.6 16.2-25.9 26.9-27.5 10.7-1.6 20.9 7.3 22.8 20 1.9 12.7-5.2 24.3-15.8 25.9z"/><path class="d" d="m234.7 27.7c1.9-12.7 12.1-21.6 22.8-20 10.6 1.6 28.8 14.9 26.9 27.5-1.9 12.7-23.2 20-33.9 18.4-10.7-1.6-17.7-13.2-15.8-25.9z"/><path class="e" d="m425.7 267v112.7c0 68.8-56 124.8-124.8 124.8-68.8 0-124.7-56-124.7-124.8v-70.7c-40.7-5.3-76.4-31.3-103.9-76.2-4.5-7.3-2.2-16.8 5-21.3 7.3-4.5 16.8-2.2 21.3 5.1 25.5 41.4 56.8 62.4 93 62.4 36.3 0 67.6-21 93-62.4 4.5-7.3 14-9.6 21.3-5.1 7.3 4.5 9.6 14 5.1 21.3-27.6 44.9-63.3 70.9-103.9 76.2v70.7c0 51.8 42.1 93.9 93.8 93.9 51.8 0 93.9-42.1 93.9-93.9v-112.7c4.9 1.3 10.1 2.1 15.5 2.1 5.3 0 10.5-0.8 15.4-2.1z"/><path class="e" d="m410.3 232.2c-12.6 0-22.7-10.1-22.7-22.7 0-12.5 10.1-22.7 22.7-22.7 12.5 0 22.6 10.2 22.6 22.7 0 12.6-10.1 22.7-22.6 22.7z"/><path class="f" d="m410.3 269.1c5.3 0 10.5-0.8 15.4-2.1v33h-30.9v-33c4.9 1.3 10.1 2.1 15.4 2.1z"/><path fill-rule="evenodd" d="m410.3 179.3c16.6 0 30.1 13.6 30.1 30.2 0 16.7-13.5 30.2-30.2 30.2-16.6 0-30.1-13.5-30.1-30.2 0-16.6 13.5-30.2 30.1-30.2zm-15.1 30.2c0 8.4 6.8 15.2 15.1 15.2 8.4 0 15.2-6.8 15.2-15.2 0-8.3-6.8-15.1-15.2-15.1-8.3 0-15.1 6.8-15.1 15.1z"/><path fill-rule="evenodd" d="m433.2 272.5v107.2c0 33.9-12.8 66.1-36.1 90.8-1.5 1.6-3.5 2.3-5.5 2.3-1.8 0-3.7-0.6-5.1-2-3.1-2.9-3.2-7.6-0.3-10.6 20.6-21.9 32-50.5 32-80.5v-103.6q-0.3 0-0.6 0.1-0.5 0-0.9 0.1-1.4 0.1-2.8 0.2-0.3 0-0.6 0-1.5 0.1-2.9 0.1-0.1 0-0.2 0 0 0-0.1 0-1.4 0-2.9-0.1-0.3 0-0.6 0-1.4-0.1-2.8-0.2-0.4-0.1-0.9-0.1-0.3-0.1-0.6-0.1v103.6c0 55.9-45.5 101.4-101.4 101.4-55.8 0-101.3-45.5-101.3-101.4v-70.7c0-3.8 2.8-7 6.5-7.5 38.3-4.9 72.3-30 98.5-72.6 2.3-3.8 1.1-8.6-2.5-10.9q-0.1-0.1-0.1-0.1-0.2-0.1-0.4-0.2c-1.7-0.9-3.7-1.2-5.6-0.7-2.1 0.4-3.8 1.7-5 3.5-26.9 43.8-60.3 66-99.4 66-39 0-72.5-22.2-99.4-66-2.2-3.6-6.9-4.8-10.6-2.8q-0.1 0.1-0.3 0.2 0 0-0.1 0c-3.7 2.4-4.8 7.2-2.5 11 26.1 42.6 60.2 67.7 98.4 72.6 3.8 0.5 6.6 3.7 6.6 7.5v43.1c0 4.2-3.4 7.6-7.5 7.6-4.2 0-7.5-3.4-7.5-7.6v-36.7c-40.2-7.4-75.7-34.5-102.8-78.7-5.5-8.8-4.2-19.9 2.4-27.3-26.8-52.2-38.9-101.5-31.5-129.6 5.5-20.8 24.3-37.4 54.5-48 0.5-6.9 4.4-13.8 11.3-20 6.6-6.1 15.1-10.5 22.1-11.5 14.7-2.3 28.8 9.5 31.3 26.3 1.2 7.9-0.3 15.7-4.2 22.1-4.2 6.8-10.5 11.2-17.9 12.3q-2.1 0.3-4.4 0.3c-6.2 0-13.6-1.7-20.1-4.7-6-2.8-10.6-6.3-13.7-10.4-18.5 6.6-39.2 18.1-44.3 37.5-4.9 18.5 0.2 60.3 30 118.4 9-1.6 18.5 2.3 23.6 10.6 24 39 53.2 58.8 86.6 58.8 33.5 0 62.6-19.8 86.6-58.8 3.3-5.3 8.3-8.9 14.3-10.4 3.1-0.7 6.3-0.8 9.3-0.2 29.8-58.1 35-99.9 30.1-118.4-5.1-19.4-25.9-31-44.3-37.5-3.1 4.1-7.8 7.6-13.7 10.4-6.6 3-13.9 4.7-20.2 4.7q-2.3 0-4.3-0.3c-7.4-1.1-13.8-5.5-17.9-12.3-3.9-6.4-5.4-14.2-4.2-22.1 2.5-16.8 16.5-28.6 31.3-26.3 6.9 1 15.4 5.4 22.1 11.5 6.9 6.2 10.8 13.1 11.3 20 30.1 10.6 48.9 27.2 54.4 48 7.4 28.1-4.6 77.4-31.4 129.6 6.5 7.4 7.8 18.5 2.4 27.3-27.2 44.2-62.6 71.3-102.8 78.7v64.3c0 47.6 38.7 86.3 86.3 86.3 47.6 0 86.4-38.7 86.4-86.3v-107.2c-25.7-9.4-44.1-34.1-44.1-63 0-22.3 11.1-43.1 29.6-55.6 3-2 6.2-3.8 9.6-5.4 3.7-1.7 8.2 0 9.9 3.7 1.7 3.8 0.1 8.3-3.7 10-2.6 1.2-5.1 2.6-7.4 4.2-14.4 9.7-23 25.8-23 43.1 0 24.1 16.4 44.4 38.7 50.3q3.1 0.8 6.3 1.3 0.3 0 0.5 0 1.5 0.2 2.9 0.3 0.2 0 0.3 0 3.4 0.2 6.7 0 0.1 0 0.3 0 1.4-0.1 2.9-0.3 0.2 0 0.5 0 3.2-0.5 6.3-1.3c22.2-5.9 38.7-26.2 38.7-50.3 0-28.7-23.4-52-52-52-4.2 0-7.6-3.4-7.6-7.5 0-4.2 3.4-7.5 7.5-7.5 37 0 67.1 30.1 67.1 67 0 28.9-18.4 53.6-44.1 63zm-162.6-249.6c-5.1-4.6-11-7.3-14.3-7.8-6.4-1-12.9 5.3-14.2 13.7-0.7 4.4 0.1 8.7 2.2 12.1 1.8 2.9 4.4 4.8 7.3 5.3 7.8 1.1 24.3-4.9 25.4-12.1 0.4-2.9-2-7.2-6.4-11.2zm-164.3 11.2c1.1 7.2 17.5 13.2 25.3 12.1 3-0.5 5.6-2.4 7.4-5.3 2.1-3.4 2.8-7.7 2.2-12.1-1.2-7.8-7-13.8-12.9-13.8q-0.7 0-1.4 0.1c-3.3 0.5-9.1 3.2-14.2 7.8-4.4 4-6.9 8.3-6.4 11.2z"/><path  d="m379 477.3c2.4 3.4 1.6 8.1-1.8 10.5-22.4 15.8-48.8 24.2-76.3 24.2-72.9 0-132.2-59.3-132.2-132.3 0-4.1 3.3-7.5 7.5-7.5 4.1 0 7.5 3.4 7.5 7.5 0 64.7 52.6 117.3 117.2 117.3 24.4 0 47.8-7.5 67.6-21.5 3.4-2.4 8.1-1.6 10.5 1.8z"/></svg>